<svg xmlns="http://www.w3.org/2000/svg" width="24" height="24" fill="currentColor" viewBox="0 0 24 24">
  <path fill-rule="evenodd" d="M16.922 2.6A2.922 2.922 0 0 0 14 5.522V5.9h-2a.6.6 0 1 0 0 1.2h5a.6.6 0 1 0 0-1.2h-1.8v-.378c0-.951.77-1.722 1.722-1.722h.578a2.3 2.3 0 0 1 2.3 2.3v5.8H2a.6.6 0 1 0 0 1.2c.559 0 1.031.413 1.106.967l.323 2.395a4.2 4.2 0 0 0 2.625 3.347l-.136.546a.6.6 0 1 0 1.164.29l.14-.561c.122.01.245.016.37.016h8.817c.124 0 .247-.005.369-.016l.14.562a.6.6 0 1 0 1.164-.291l-.136-.546a4.2 4.2 0 0 0 2.625-3.347l.323-2.395A1.116 1.116 0 0 1 22 13.1a.6.6 0 1 0 0-1.2h-1V6.1a3.5 3.5 0 0 0-3.5-3.5h-.578ZM4.295 13.906a2.31 2.31 0 0 0-.265-.806h15.94a2.312 2.312 0 0 0-.265.806l-.323 2.395a3 3 0 0 1-2.973 2.6H7.59a3 3 0 0 1-2.973-2.6l-.323-2.395Z" clip-rule="evenodd"/>
  <path d="M15.2 8.6a.6.6 0 1 0-1.2 0v.8a.6.6 0 1 0 1.2 0v-.8ZM12.6 8a.6.6 0 0 1 .6.6v.8a.6.6 0 1 1-1.2 0v-.8a.6.6 0 0 1 .6-.6Zm4.6.6a.6.6 0 1 0-1.2 0v.8a.6.6 0 1 0 1.2 0v-.8Z"/>
</svg>
