<svg xmlns="http://www.w3.org/2000/svg" width="24" height="24" fill="currentColor" viewBox="0 0 24 24">
  <path fill-rule="evenodd" d="M2.9 5.214V4.76l.418-.133a28.677 28.677 0 0 1 17.364 0 .6.6 0 0 1 .418.586V11.5a.603.603 0 0 1-.012.121A4.58 4.58 0 0 1 22.1 14.5v6a.6.6 0 1 1-1.2 0v-2.4H3.1v2.4a.6.6 0 1 1-1.2 0v-6c0-1.09.379-2.09 1.012-2.88a.602.602 0 0 1-.012-.12V5.214ZM17.5 11.1a3.4 3.4 0 0 1 3.4 3.4v2.4H3.1v-2.4a3.4 3.4 0 0 1 3.4-3.4h11Zm-3-2a.4.4 0 0 0-.4.4v.4h3.4c.135 0 .268.006.4.017V9.5a.4.4 0 0 0-.4-.4h-3Zm5.4 1.475a4.576 4.576 0 0 0-.8-.39V9.5a1.6 1.6 0 0 0-1.6-1.6h-3a1.6 1.6 0 0 0-1.6 1.6v.4h-1.8v-.4a1.6 1.6 0 0 0-1.6-1.6h-3a1.6 1.6 0 0 0-1.6 1.6v.686c-.28.104-.548.235-.8.389V5.643a27.477 27.477 0 0 1 15.8 0v4.932ZM6.5 9.9c-.135 0-.268.006-.4.017V9.5c0-.22.18-.4.4-.4h3c.22 0 .4.18.4.4v.4H6.5Z" clip-rule="evenodd"/>
</svg>
